<!-- <svg xmlns='http://www.w3.org/2000/svg' width='100%' height='100%' viewBox='0 0 800 800'><rect fill='#000000' width='800' height='800'/><g fill-opacity='0.76'><circle fill='#000000'  cx='400' cy='400' r='600'/><circle fill='#230046'  cx='400' cy='400' r='500'/><circle fill='#2f0052'  cx='400' cy='400' r='400'/><circle fill='#3b075e'  cx='400' cy='400' r='300'/><circle fill='#48156a'  cx='400' cy='400' r='200'/><circle fill='#552277'  cx='400' cy='400' r='100'/></g></svg> -->
<svg xmlns="http://www.w3.org/2000/svg" version="1.1" xmlns:xlink="http://www.w3.org/1999/xlink" xmlns:svgjs="http://svgjs.dev/svgjs" viewBox="0 0 1920 1080"><rect width="1920" height="1080" fill="#8036c9"></rect><g transform="matrix(1.15,0,0,1.15,-141.14423732757564,-81)"><path d="M0,-1080C-0.6285359842213817,-979.7080256224236,-12.194904726521811,-658.1010130191661,-3.7712159053282903,-478.2481537345416C4.65247291586523,-298.39529444991706,46.79144395530625,-163.82954834652696,50.54213292716112,-0.8828442922527557C54.29282189901599,162.06385976202142,33.36621351546752,318.1864178772446,18.73291792580092,499.4320705911037C4.099622336134315,680.6777233049628,-44.9827478217692,899.6530643889264,-37.25764061083851,1086.591071990902C-29.532533399907813,1273.5290795928777,58.873954422912,1442.1586282014412,65.08356119138509,1621.0601162029575C71.29316795985817,1799.9616042044738,10.84726019856418,2070.176686033826,0,2160L 1920 2160 L 1920 -1080 Z" fill="url(&quot;#SvgjsLinearGradient1063&quot;)"></path><path d="M320,-1080C327.0231185610917,-1000.6343391993967,360.8495847059564,-777.5412358732308,362.1387113665499,-603.8060351963803C363.4278380271434,-430.07083451952985,331.27821084070206,-225.47547385001826,327.73475996356103,-37.58879593889687C324.19130908642,150.2978819722245,353.48091446299105,331.61900413659487,340.87800610370357,523.5140322703478C328.2750977444161,715.4090604041007,262.35430643168297,928.9494369910218,252.11730980783628,1113.7813728636208C241.88031318398959,1298.61330873622,268.1422446619294,1458.1358763165458,279.45602636062335,1632.5056475059423C290.7698080593173,1806.8754186953388,313.2426710601039,2072.084274584324,320,2160L 1920 2160 L 1920 -1080 Z" fill="url(&quot;#SvgjsLinearGradient1064&quot;)"></path><path d="M640,-1080C637.0253250165543,-980.5547913767259,626.3928439184431,-710.3672490367704,622.1519500993262,-483.3287482603554C617.9110562802093,-256.29024748394033,600.6055798928876,64.92271921741343,614.5546370852991,282.23100465849046C628.5036942777106,499.5392900995675,695.4629940682173,623.359119711777,705.8462932537949,820.5209643861069C716.2295924393725,1017.6828090604369,687.8288144077303,1241.9555667688212,676.8544321987645,1465.20207270447C665.8800499897986,1688.448578640119,646.1424053664607,2044.200345450745,640,2160L 1920 2160 L 1920 -1080 Z" fill="url(&quot;#SvgjsLinearGradient1065&quot;)"></path><path d="M960,-1080C963.4530273872538,-1013.4252422325574,984.1479770446778,-804.5488494116368,980.718164323523,-680.5514533953444C977.2883516023682,-556.5540573790521,950.866407788958,-472.6378362398566,939.4211236730712,-336.0156239022463C927.9758395571844,-199.39341156463607,901.2584763339681,-0.19001033601398376,912.0464596282025,139.181820630317C922.8344429224368,278.55365159664797,998.2495645529068,356.11277956841724,1004.1490234384773,500.2153618957394C1010.0484823240479,644.3179442230617,964.7877352989009,856.3690561961382,947.4432129416255,1003.7973145942501C930.09869058435,1151.225572992362,890.9065849361978,1263.1191483020762,900.0818892948246,1384.7849122844107C909.2571936534514,1506.4506762667452,992.5086873091908,1604.5893838689922,1002.4950390933867,1733.7918984882572C1012.4813908775826,1862.9944131075222,967.0825065155644,2088.9653164147094,960,2160L 1920 2160 L 1920 -1080 Z" fill="url(&quot;#SvgjsLinearGradient1066&quot;)"></path><path d="M1280,-1080C1288.1121310687372,-993.1862087203132,1325.9988927708464,-705.5131154676405,1328.6727864124236,-559.1172523218789C1331.346680054001,-412.7213891761173,1293.7184404890386,-355.8912056276714,1296.0433618494633,-201.62482112543023C1298.368283209888,-47.35843662318908,1344.6853398429944,205.95680965218898,1342.6223145749723,366.481054691568C1340.5592893069502,527.005299730947,1295.6125224811874,616.7023831396723,1283.6652102413302,761.5206491108438C1271.717898001473,906.3389150820153,1270.0360422523925,1069.549227451874,1270.9384411358287,1235.3906505185969C1271.840840019265,1401.2320735853198,1287.5693437312523,1602.4676292642803,1289.0796035419476,1756.5691875111809C1290.5898633526429,1910.6707457580815,1281.5132672569912,2092.7615312518633,1280,2160L 1920 2160 L 1920 -1080 Z" fill="url(&quot;#SvgjsLinearGradient1067&quot;)"></path><path d="M1600,-1080C1610.702911805598,-966.1167716350006,1664.0221654444567,-616.0879670615641,1664.217470833588,-396.70062981000376C1664.4127762227195,-177.3132925584434,1612.9439578776742,26.21951210179361,1601.1718323347886,236.3240235093623C1589.399706791903,446.42853491693097,1585.6161483688763,662.5169106151939,1593.5847175762756,863.9264386354084C1601.5532867836748,1065.335966655623,1647.9140338418968,1228.768931403218,1648.983247579184,1444.7811916306498C1650.0524613164714,1660.7934518580817,1608.1638745965306,2040.796865271775,1600,2160L 1920 2160 L 1920 -1080 Z" fill="url(&quot;#SvgjsLinearGradient1068&quot;)"></path></g><defs><linearGradient x1="0.1" y1="0" x2="0" y2="1" id="SvgjsLinearGradient1063"><stop stop-color="#8036c9" offset="0"></stop><stop stop-color="#6836c9" offset="0"></stop></linearGradient><linearGradient x1="0.1" y1="0" x2="0" y2="1" id="SvgjsLinearGradient1064"><stop stop-color="#9b61d4" offset="0"></stop><stop stop-color="#8861d4" offset="0.16666666666666666"></stop></linearGradient><linearGradient x1="0.1" y1="0" x2="0" y2="1" id="SvgjsLinearGradient1065"><stop stop-color="#b68be0" offset="0"></stop><stop stop-color="#a88be0" offset="0.3333333333333333"></stop></linearGradient><linearGradient x1="0.1" y1="0" x2="0" y2="1" id="SvgjsLinearGradient1066"><stop stop-color="#d1b6eb" offset="0"></stop><stop stop-color="#c8b6eb" offset="0.5"></stop></linearGradient><linearGradient x1="0.1" y1="0" x2="0" y2="1" id="SvgjsLinearGradient1067"><stop stop-color="#ece0f7" offset="0"></stop><stop stop-color="#e8e0f7" offset="0.6666666666666666"></stop></linearGradient><linearGradient x1="0.1" y1="0" x2="0" y2="1" id="SvgjsLinearGradient1068"><stop stop-color="#ffffff" offset="0"></stop><stop stop-color="#ffffff" offset="0.8333333333333334"></stop></linearGradient></defs></svg>